<svg version="1.0" xmlns="http://www.w3.org/2000/svg"
 width="512.000000pt" height="512.000000pt" viewBox="0 0 512.000000 512.000000"
 preserveAspectRatio="xMidYMid meet">

<g transform="translate(0.000000,512.000000) scale(0.100000,-0.100000)"
fill="#CFB489" stroke="none">
<path d="M2448 5110 c-126 -18 -237 -76 -252 -133 -4 -19 -17 -24 -101 -40
-229 -42 -432 -144 -603 -303 -222 -205 -356 -506 -402 -902 -20 -177 -91
-335 -179 -400 -115 -85 -193 -200 -228 -332 -22 -87 -21 -260 2 -360 10 -41
20 -124 22 -185 4 -96 1 -120 -20 -186 -29 -93 -84 -177 -150 -232 -110 -91
-156 -154 -187 -256 -33 -107 -21 -224 35 -329 15 -28 25 -63 25 -88 0 -47
-36 -123 -81 -170 -67 -70 -90 -268 -50 -426 20 -76 82 -213 117 -256 19 -23
19 -22 16 75 -4 108 10 209 32 231 12 12 19 7 50 -34 92 -125 168 -328 151
-405 l-6 -28 83 38 c221 102 560 194 793 216 95 9 164 29 255 75 294 148 450
430 450 815 l0 121 -85 73 c-191 162 -402 427 -469 588 -71 173 -72 194 -23
593 l41 335 62 80 c86 112 193 278 214 332 l17 45 20 -44 c70 -147 59 -292
-29 -402 -30 -37 -30 -38 -7 -31 90 29 192 135 231 241 27 75 35 237 18 350
-13 81 -13 81 15 130 39 68 94 134 110 134 8 0 24 -19 36 -42 60 -119 181
-260 284 -333 119 -84 272 -144 412 -160 l62 -7 6 -41 c12 -72 65 -219 113
-311 71 -139 172 -237 280 -271 60 -20 59 -13 42 -186 -20 -199 -70 -422 -127
-562 -77 -189 -138 -284 -266 -411 l-100 -99 6 -146 c9 -241 77 -440 202 -597
138 -173 366 -287 619 -310 42 -4 76 -10 76 -15 0 -4 -7 -34 -15 -66 -22 -82
-22 -216 -1 -280 29 -88 119 -168 222 -197 19 -6 20 -3 16 52 -2 32 1 91 7
131 24 155 99 243 220 258 l47 5 74 -92 73 -92 19 23 c44 56 131 213 163 292
42 108 56 177 56 268 0 103 -25 175 -70 204 -59 37 -130 121 -164 193 -27 58
-32 81 -35 166 -5 117 10 201 43 236 48 51 61 138 29 206 -10 21 -46 66 -81
100 -55 53 -63 65 -63 98 0 46 11 69 62 124 175 192 118 513 -149 841 -108
133 -99 97 -111 437 l-10 301 -37 109 c-167 502 -581 930 -1127 1168 -82 36
-130 50 -210 61 -131 19 -402 27 -490 15z"/>
</g>
</svg>